<?xml version="1.0" ?><svg height="512" preserveAspectRatio="xMidYMid" viewBox="0 0 512 512" width="512" xmlns="http://www.w3.org/2000/svg" xmlns:xlink="http://www.w3.org/1999/xlink"><defs><style>
      .cls-1 {
        fill: #3498db;
      }

      .cls-2 {
        fill: #000;
        opacity: 0.3;
      }

      .cls-2, .cls-3 {
        fill-rule: evenodd;
      }

      .cls-3 {
        fill: #fff;
      }
    </style></defs><g><circle class="cls-1" cx="256" cy="256" r="256"/><path class="cls-2" d="M142.863,134.535 L7.206,195.435 C2.496,214.852 -0.000,235.135 -0.000,256.000 C-0.000,397.385 114.615,512.000 256.000,512.000 C286.881,512.000 316.485,506.532 343.896,496.512 L383.702,379.421 C383.702,379.421 353.481,275.443 347.000,248.000 C261.385,241.303 219.000,209.000 219.000,209.000 L182.000,237.000 L131.000,211.000 L170.000,186.000 L142.863,134.535 Z"/><path class="cls-3" d="M383.836,379.993 L330.613,379.993 C330.613,379.993 330.613,272.620 330.613,269.335 C330.613,266.051 321.959,252.704 302.101,252.165 C282.243,251.626 273.225,266.500 273.588,271.243 C273.841,274.538 273.588,378.085 273.588,378.085 L218.465,378.085 L219.283,208.283 L269.787,208.283 L269.787,225.454 C269.787,225.454 291.683,202.506 328.712,202.560 C366.822,202.615 383.472,242.510 383.836,248.349 C384.200,254.188 383.836,379.993 383.836,379.993 ZM156.681,189.562 C140.841,189.562 128.000,176.677 128.000,160.781 C128.000,144.886 140.841,132.000 156.681,132.000 C172.521,132.000 185.362,144.886 185.362,160.781 C185.362,176.677 172.521,189.562 156.681,189.562 ZM184.250,379.993 L129.126,379.993 L129.126,206.375 L184.250,206.375 L184.250,379.993 Z"/></g></svg>