<?xml version="1.0" encoding="utf-8"?>
<!-- Generator: Adobe Illustrator 16.0.0, SVG Export Plug-In . SVG Version: 6.00 Build 0)  -->
<!DOCTYPE svg PUBLIC "-//W3C//DTD SVG 1.1//EN" "http://www.w3.org/Graphics/SVG/1.1/DTD/svg11.dtd">
<svg version="1.1" id="Layer_1" xmlns="http://www.w3.org/2000/svg" xmlns:xlink="http://www.w3.org/1999/xlink" x="0px" y="0px"
	 width="809px" height="500px" viewBox="0 0 809 500" enable-background="new 0 0 809 500" xml:space="preserve">
<rect fill="#5DE3FF" width="809" height="500"/>
<g>
	<path fill="#FFFFFF" d="M404.071,107.677l-133.923,47.13L291.31,330.27l112.902,62.054l113.486-62.895l21.154-175.455
		L404.071,107.677z M505.78,321.035l-102.022,56.462L303.31,321.785l-18.134-156.923l118.582-42.262l121.737,41.513L505.78,321.035z
		"/>
	<g>
		<path fill="#FFFFFF" d="M431.976,249.382l-27.996-58.464l-24.646,58.464H431.976z M442.649,273.965h-74.21l-16.603,41.526
			l-30.881,0.57l82.804-184.206l85.689,184.206h-28.621L442.649,273.965z M442.649,273.965"/>
		<path fill="#FFFFFF" d="M403.758,131.855l0.221,59.063l27.967,58.509h-28.125l-0.063,24.5l38.89,0.038l18.178,42.104l29.549,0.549
			L403.758,131.855z M403.758,131.855"/>
	</g>
</g>
</svg>
